<?xml version="1.0" encoding="UTF-8"?><svg id="Layer_1" xmlns="http://www.w3.org/2000/svg" viewBox="0 0 388.53 207"><defs><style>.cls-1{fill:#fff;}</style></defs><path class="cls-1" d="M302.09,126.6l-1.73,8.48h-25.3s-1.22,5.88-1.22,5.88h23.92l-1.91,8.47h-23.98s-1.49,5.89-1.49,5.89h26.09c6.62-9.41,12.87-19.09,19.4-28.56l.52-.17h15.24s6,32.37,6,32.37l7.45-32.36h12.65l-2.95,13.5,14.82-13.5h16.38l-18.38,15.31,13,22.07h-14.47l-8.06-14.54-6.56,5.47-2.11,9.05h-24.95s-.52-5.62-.52-5.62l-.28-.41-14.37-.04-3.55,6.07h-50.62l8.49-37.38h38.48ZM322.89,149.61l-1.56-12.63-7.45,12.63h9.01Z"/><polygon class="cls-1" points="103.27 126.6 106.48 149.96 120.86 126.6 172.61 126.6 170.68 135.06 145.67 135.1 145.43 135.37 144.18 140.96 168.1 140.96 166.18 149.42 142.11 149.45 140.71 155.33 167.75 155.33 165.85 163.98 125.46 163.98 133.08 130.93 109.96 163.82 109.43 163.99 97.48 163.99 89.4 126.6 103.27 126.6"/><path class="cls-1" d="M168.27,163.98l8.49-37.38c7.77.25,15.75-.34,23.49,0,5.62.24,12.4,1.36,13.87,7.79,1.55,6.83-2.54,13.15-9.28,14.72l5.89,14.88h-13.52l-4.85-12.9c-2.65-.12-5.39-.16-8,.02l-2.93,12.88h-13.17ZM186.47,142.17h10.14c1.35,0,3.03-1,3.76-2.13,1.59-2.46.25-4.69-2.55-4.96-3.07-.3-6.58.23-9.69-.01l-1.66,7.1Z"/><path class="cls-1" d="M43.98,136.45l-12.12,1.05c.46-1.9-1.46-3.04-3.09-3.41-2.03-.46-4.7-.54-6.67.16-2.57.91-3.24,2.87-.65,4.38,5.86,3.41,19.57,2.69,20.46,11.59,1.61,16.11-24.12,17.61-34.15,12.12-3.95-2.16-5.4-5.51-5.2-9.95l12.31-.52c-.22,2.1,1.19,3.61,3.07,4.29,2.81,1.02,10.86,1.17,10.87-3.16,0-1.83-1.66-2.34-3.11-2.86-6.98-2.51-19.27-3.05-18.81-13.06.37-7.92,8.44-10.88,15.17-11.51,7.91-.74,22.64-.27,21.92,10.89Z"/><path class="cls-1" d="M212.13,163.98l8.77-37.39h25.99c8.76.22,14.62,6.01,11.7,14.98-3.99,12.25-20.2,8.43-29.98,9.1l-3.22,13.31h-13.26ZM230.68,142.17h11.35c1.25,0,3.08-1.32,3.59-2.48,1.2-2.76-.3-4.41-3.06-4.62-3.29-.26-6.89.21-10.21,0l-1.67,7.11Z"/><polygon class="cls-1" points="80.04 126.6 73.46 155.15 92.52 155.15 90.62 163.98 57.85 163.98 66.52 126.6 80.04 126.6"/><polygon class="cls-1" points="63.4 126.6 54.91 163.98 41.39 163.98 49.88 126.6 63.4 126.6"/><path class="cls-1" d="M231.2,199.8c1.86-8.67,3.99-17.31,6.23-25.88,4.2.06,8.74-.35,12.93-.09,4.15.26,7.82,2.13,8.22,6.67s-2.28,8.01-6.76,9.01l4.34,10.29h-7.63l-3.72-9.18-4.59.03c-.37.87-1.88,9.15-2.36,9.15h-6.67ZM241.6,185.61h6.67c.18,0,1.41-.47,1.64-.61,2.42-1.55,2.57-5.71-.79-6.12-1.29-.15-4.42-.17-5.71-.03-.19.02-.27-.01-.3.22l-1.51,6.54Z"/><path class="cls-1" d="M87.67,199.8l6.15-25.79c.13-.19.33-.15.52-.18,1.17-.15,4.74-.14,5.91,0,.19.02.39-.01.51.18l5.37,16.1,3.81-16.27h6.15l-6.15,25.79c-.13.19-.33.15-.52.18-1.91.24-4.34-.18-6.31-.03l-5.31-16.24-3.99,16.27h-6.15Z"/><path class="cls-1" d="M153.71,199.8l6.26-25.94h6.89s5.23,16.08,5.23,16.08l3.81-16.09h6.41l-6.26,25.94c-1.98-.15-4.4.26-6.32.03-.19-.02-.39.01-.51-.18l-5.11-15.92-3.98,16.09h-6.41Z"/><path class="cls-1" d="M271.15,199.8l6.06-25.79c.13-.19.32-.16.51-.18,1.92-.23,4.34.17,6.31.03l5.57,16.07,3.73-16.09h6.15l-6.26,25.93h-6.71s-5.31-16.07-5.31-16.07l-3.9,16.09h-6.15Z"/><path class="cls-1" d="M326.19,185.26c-.7,5.56-2.25,11.92-8.23,13.85-3.1,1-8.8.9-11.82-.32-10.49-4.24-7.13-20.43,2.31-24.41,5.92-2.5,16.09-1.32,17.74,6.03l-6.33,1.53c-.37-.54-.42-1.18-.8-1.76-1.38-2.09-4.9-2.25-7.02-1.36-4.27,1.8-6.23,8.89-4.37,12.9,2.23,4.8,10.07,3.71,11.07-1.45h-5.55l1.21-5.02h11.79Z"/><path class="cls-1" d="M142.27,185.61c-.77,5.41-2.2,11.62-8.05,13.5-2.81.9-8.72.79-11.48-.32-9.27-3.74-7.35-17.4-.18-22.39,5.92-4.13,17.6-3.55,19.71,4.54l-6.31,1.4c-.68-3.51-5.03-4.23-7.85-2.81-3.71,1.87-5.41,7.89-4.17,11.66,1.78,5.42,9.89,4.69,11.05-.73h-5.37c.49-1.59.65-3.34,1.3-4.85h11.35Z"/><path class="cls-1" d="M206.5,173.84c.14.03.2.19.19.36-.05,1.32-1.16,3.37-1.15,4.83l-13.16.02-1.05,4.66h9.88l-1.05,5.01-10.02.03-1.41,6.03h14.91l-1.21,5.02h-21.84l6.24-25.96h19.67Z"/><path class="cls-1" d="M88.36,173.84c.19.2-1,4.49-1.2,5.11l-12.99.09-1.06,4.66h9.62c.06,0,.3.25.23.39l-1.17,4.55-9.9.15-1.55,5.98h14.91l-1.04,5.02h-21.84l6.33-25.96h19.67Z"/><path class="cls-1" d="M231.89,173.84c.19.2-1,4.49-1.2,5.11l-13,.08-1.05,4.66h9.88l-1.2,4.94-9.87.1-1.58,6.03h14.91l-1.04,5.02h-21.84l6.24-25.96h19.76Z"/><path class="cls-1" d="M149.12,173.84h6.59c.06,0,.3.25.23.39l-6.3,25.56h-6.59l6.07-25.96Z"/><polygon class="cls-1" points="272.28 173.84 265.95 199.8 259.28 199.8 265.34 173.84 272.28 173.84"/><g id="jYII1Q"><path class="cls-1" d="M190,7.16c14.18-.37,31.91,1.46,44.71,7.78,5.25,2.59,10.23,6.31,12.12,12.1.2,18.05.15,36.16.03,54.22-3.24,9.92-15.69,14.6-24.98,16.83-17.91,4.3-41.08,4.63-58.78-.7-8.28-2.49-19.57-7.37-21.52-16.74V27.86c1.11-6.33,6.98-10.57,12.39-13.22,10.79-5.28,24.08-7.16,36.03-7.47ZM241.15,72.9V29.18c0-2.75-4.14-6.11-6.28-7.45-10.35-6.49-27.27-8.52-39.34-8.8-12.62-.3-30.4,1.95-41.36,8.48-2.08,1.24-6.81,4.89-6.81,7.54v45.27l46.85-50.71,46.95,49.39ZM194.41,49.59c-.55.26-.98.82-1.39,1.28-1.35,1.54-2.49,3.27-3.78,4.86-1.87,2.3-2.99,2.13-5.59,3.05-4.04,1.43-4.65,4.4-7.25,7.26-.42.46-1.85,1.82-2.38,2.02-.19.07-.25.07-.44.03-.53-.1-1.33-.55-1.88-.74-1.1-.38-2.29-.78-3.47-.69-2.12.15-3.15,2.44-5.58,1.8-1.84-.49-1.89-1.49-4.11-.37-3.05,1.54-7.42,5.72-9.8,8.26-.23.25-1.27,1.32-1.34,1.51-.2.49,0,1.91.17,2.45,1.67,5.45,11.48,9.47,16.47,11.08,10.23,3.28,22.41,4.48,33.11,4.07,8.57-.33,17.32-1.27,25.59-3.57,5.41-1.51,16.12-5.65,18.18-11.37.44-1.21.19-2.99.2-4.27-5.81-6.1-12.17-11.68-18.55-17.18-5.51-4.75-10.88-9.73-17.61-12.71-5.08-2.24-11.18-3.79-16.56-1.68l6.02,4.94Z"/></g></svg>