<?xml version="1.0" encoding="UTF-8"?><svg id="Layer_1" xmlns="http://www.w3.org/2000/svg" viewBox="0 0 336.76 66.26"><defs><style>.cls-1{fill:#fff;}</style></defs><path class="cls-1" d="M278.93,9.22l-1.13,5.53h-16.5s-.8,3.84-.8,3.84h15.6l-1.25,5.52h-15.64s-.97,3.84-.97,3.84h17.01c4.32-6.13,8.39-12.45,12.65-18.63l.34-.11h9.94s3.91,21.11,3.91,21.11l4.86-21.1h8.25l-1.92,8.8,9.66-8.8h10.68l-11.98,9.99,8.48,14.39h-9.44l-5.26-9.48-4.28,3.57-1.38,5.9h-16.27s-.34-3.66-.34-3.66l-.19-.27-9.37-.02-2.31,3.96h-33.01l5.54-24.38h25.1ZM292.5,24.23l-1.02-8.24-4.86,8.24h5.88Z"/><polygon class="cls-1" points="149.27 9.22 151.36 24.46 160.74 9.22 194.49 9.22 193.23 14.74 176.92 14.77 176.76 14.95 175.95 18.59 191.55 18.59 190.29 24.11 174.6 24.13 173.69 27.96 191.32 27.96 190.08 33.6 163.74 33.6 168.71 12.05 153.63 33.5 153.29 33.61 145.49 33.61 140.22 9.22 149.27 9.22"/><path class="cls-1" d="M191.66,33.6l5.54-24.38c5.07.16,10.27-.22,15.32,0,3.66.15,8.09.89,9.04,5.08,1.01,4.45-1.66,8.57-6.05,9.6l3.84,9.7h-8.82l-3.16-8.41c-1.73-.08-3.51-.1-5.22.01l-1.91,8.4h-8.59ZM203.53,19.38h6.61c.88,0,1.98-.65,2.45-1.39,1.04-1.61.17-3.06-1.66-3.24-2-.2-4.29.15-6.32,0l-1.08,4.63Z"/><path class="cls-1" d="M110.6,15.65l-7.91.68c.3-1.24-.95-1.98-2.01-2.22-1.32-.3-3.07-.35-4.35.1-1.68.59-2.11,1.87-.42,2.85,3.82,2.22,12.76,1.75,13.34,7.56,1.05,10.51-15.73,11.48-22.27,7.9-2.57-1.41-3.52-3.6-3.39-6.49l8.03-.34c-.14,1.37.78,2.35,2,2.8,1.83.66,7.08.76,7.09-2.06,0-1.19-1.09-1.53-2.03-1.86-4.55-1.64-12.57-1.99-12.27-8.52.24-5.16,5.5-7.09,9.89-7.5,5.16-.48,14.76-.18,14.29,7.1Z"/><path class="cls-1" d="M220.26,33.6l5.72-24.38h16.95c5.71.14,9.54,3.92,7.63,9.77-2.6,7.99-13.17,5.5-19.55,5.93l-2.1,8.68h-8.65ZM232.36,19.38h7.4c.81,0,2.01-.86,2.34-1.62.79-1.8-.2-2.87-2-3.02-2.14-.17-4.5.14-6.66,0l-1.09,4.63Z"/><polygon class="cls-1" points="134.12 9.22 129.82 27.85 142.26 27.85 141.02 33.6 119.65 33.6 125.3 9.22 134.12 9.22"/><polygon class="cls-1" points="123.27 9.22 117.73 33.6 108.91 33.6 114.45 9.22 123.27 9.22"/><path class="cls-1" d="M193.68,56.96c1.21-5.65,2.6-11.29,4.07-16.88,2.74.04,5.7-.23,8.43-.06s5.1,1.39,5.36,4.35-1.49,5.22-4.41,5.87l2.83,6.71h-4.97l-2.42-5.99-2.99.02c-.24.57-1.23,5.97-1.54,5.97h-4.35ZM200.47,47.71h4.35c.12,0,.92-.31,1.07-.4,1.58-1.01,1.68-3.73-.52-3.99-.84-.1-2.88-.11-3.72-.02-.12.01-.18,0-.2.15l-.98,4.26Z"/><path class="cls-1" d="M100.08,56.96l4.01-16.82c.08-.13.21-.1.34-.12.76-.1,3.09-.09,3.86,0,.12.02.25,0,.33.12l3.5,10.5,2.49-10.61h4.01l-4.01,16.82c-.08.13-.21.1-.34.12-1.25.16-2.83-.11-4.12-.02l-3.46-10.59-2.6,10.61h-4.01Z"/><path class="cls-1" d="M143.15,56.96l4.08-16.92h4.5s3.41,10.48,3.41,10.48l2.49-10.5h4.18l-4.08,16.92c-1.29-.1-2.87.17-4.12.02-.12-.02-.25,0-.33-.12l-3.33-10.38-2.6,10.5h-4.18Z"/><path class="cls-1" d="M219.74,56.96l3.95-16.82c.08-.12.21-.1.33-.12,1.25-.15,2.83.11,4.12.02l3.63,10.48,2.43-10.5h4.01l-4.08,16.91h-4.38s-3.46-10.48-3.46-10.48l-2.54,10.5h-4.01Z"/><path class="cls-1" d="M255.63,47.48c-.45,3.63-1.47,7.77-5.37,9.03-2.02.65-5.74.59-7.71-.21-6.84-2.77-4.65-13.32,1.51-15.92,3.86-1.63,10.49-.86,11.57,3.93l-4.13,1c-.24-.35-.28-.77-.52-1.15-.9-1.36-3.2-1.47-4.58-.89-2.78,1.17-4.06,5.79-2.85,8.41,1.45,3.13,6.57,2.42,7.22-.95h-3.62l.79-3.27h7.69Z"/><path class="cls-1" d="M135.69,47.71c-.5,3.53-1.43,7.58-5.25,8.81-1.84.59-5.69.52-7.49-.21-6.05-2.44-4.79-11.35-.12-14.6,3.86-2.69,11.48-2.31,12.86,2.96l-4.12.91c-.45-2.29-3.28-2.76-5.12-1.83-2.42,1.22-3.53,5.14-2.72,7.61,1.16,3.54,6.45,3.06,7.2-.48h-3.5c.32-1.03.43-2.18.85-3.16h7.4Z"/><path class="cls-1" d="M177.57,40.03c.09.02.13.13.13.23-.03.86-.76,2.2-.75,3.15h-8.58s-.68,3.05-.68,3.05h6.44l-.68,3.27-6.54.02-.92,3.94h9.72l-.79,3.27h-14.24l4.07-16.93h12.83Z"/><path class="cls-1" d="M100.53,40.03c.13.13-.65,2.93-.78,3.34l-8.47.06-.69,3.04h6.27s.19.17.15.26l-.77,2.97-6.46.1-1.01,3.9h9.72l-.68,3.27h-14.24l4.13-16.93h12.83Z"/><path class="cls-1" d="M194.14,40.03c.13.13-.65,2.93-.78,3.34l-8.48.06-.68,3.04h6.44l-.78,3.22-6.44.06-1.03,3.94h9.72l-.68,3.27h-14.24l4.07-16.93h12.89Z"/><path class="cls-1" d="M140.16,40.03h4.3s.19.17.15.26l-4.11,16.67h-4.3l3.96-16.93Z"/><polygon class="cls-1" points="220.48 40.03 216.35 56.96 212 56.96 215.95 40.03 220.48 40.03"/><g id="jYII1Q"><path class="cls-1" d="M34.25,2.86c9.12-.24,20.52.94,28.74,5,2.84,1.41,5.56,3.32,7.08,6.12.47.87.72,1.84.73,2.83.11,10.47.09,20.95.02,31.42-.02,2.39-.91,4.7-2.55,6.44-3.41,3.61-9.04,5.58-13.53,6.66-11.51,2.77-26.41,2.97-37.79-.45-2.96-.89-6.53-2.26-9.32-4.33s-4.52-5.5-4.52-9.07v-30.35c0-1.07.22-2.12.69-3.08,1.41-2.92,4.44-4.99,7.28-6.38,6.94-3.4,15.48-4.61,23.17-4.81ZM67.14,45.13v-28.11c0-1.77-2.66-3.93-4.04-4.79-6.66-4.17-17.53-5.48-25.29-5.66-8.12-.19-19.54,1.26-26.59,5.45-1.34.8-4.38,3.15-4.38,4.85v29.1L36.95,13.37l30.18,31.76ZM37.08,30.14c-.35.17-.63.53-.89.82-.87.99-1.6,2.1-2.43,3.12-1.21,1.48-1.92,1.37-3.6,1.96-2.6.92-2.99,2.83-4.66,4.67-.27.3-1.19,1.17-1.53,1.3-.12.05-.16.04-.29.02-.34-.07-.85-.35-1.21-.48-.71-.24-1.47-.5-2.23-.44-1.36.1-2.03,1.57-3.59,1.16-1.18-.31-1.27-.58-2.69.13-1.96.99-4.77,3.87-6.3,5.51-.15.16-.86.97-.86.97,0,0,.06.66.16,1,1.07,3.5,7.38,6.09,10.59,7.12,6.57,2.11,14.41,2.88,21.29,2.62,5.51-.21,11.14-.82,16.45-2.3,3.48-.97,10.36-3.64,11.69-7.31.28-.78.22-1.16.23-1.99-3.74-3.92-7.93-8.27-12.03-11.8-3.54-3.05-7-6.26-11.32-8.17-3.26-1.44-7.19-2.44-10.65-1.08l3.87,3.17Z"/></g></svg>